<svg xmlns="http://www.w3.org/2000/svg" width="491" height="128">
    <g data-name="wrapper">
        <path data-name="logo" d="M3.691 69.15a32.6 32.6 0 0 1 4.038-16.018 30.282 30.282 0 0 1 11.184-11.58 30.35 30.35 0 0 1 15.848-4.262 31.666 31.666 0 0 1 14.9 3.538 29.44 29.44 0 0 1 10.9 9.6l-10.683 7.341a18.65 18.65 0 0 0-6.5-5.911 17.582 17.582 0 0 0-8.613-2.175 16.57 16.57 0 0 0-12.81 5.647 19.829 19.829 0 0 0-5.12 13.821 19.613 19.613 0 0 0 5.12 13.733 16.629 16.629 0 0 0 12.81 5.6 17.423 17.423 0 0 0 8.811-2.329 19.535 19.535 0 0 0 6.658-6.24L60.82 87.3a29.506 29.506 0 0 1-10.964 9.931 31.548 31.548 0 0 1-15.095 3.648 30.472 30.472 0 0 1-12.3-2.527 30.439 30.439 0 0 1-9.9-6.79 31.551 31.551 0 0 1-6.49-10.107 32.324 32.324 0 0 1-2.38-12.305ZM68.643 100V35.093h12.436v29.578a9.115 9.115 0 0 1 2.93-4.295 13.583 13.583 0 0 1 4.429-2.55 14.094 14.094 0 0 1 4.451-.76q8.181 0 12.468 5.229t4.287 14.854V100H97.207V77.748a7.979 7.979 0 0 0-2.336-6.065 7.618 7.618 0 0 0-5.42-2.225 8.941 8.941 0 0 0-5.9 2.051q-2.468 2.051-2.468 6.414V100Zm52.075 0V57.988h12.437v10.067a15.669 15.669 0 0 1 4.878-8.2 10.891 10.891 0 0 1 6.987-2.791 15.626 15.626 0 0 1 7.207 1.533l-2.241 11.17a14.439 14.439 0 0 0-6.416-1.278 8.555 8.555 0 0 0-7.888 4.186q-2.527 4.186-2.527 12.6V100Zm34.849-21.159A22.037 22.037 0 0 1 158.54 67.4a20.158 20.158 0 0 1 7.928-7.683 22.65 22.65 0 0 1 10.874-2.656 22.585 22.585 0 0 1 10.882 2.673 20.444 20.444 0 0 1 7.972 7.731 21.819 21.819 0 0 1 3.004 11.376 22.01 22.01 0 0 1-3 11.408 20.425 20.425 0 0 1-7.972 7.775 22.537 22.537 0 0 1-10.887 2.676 22.613 22.613 0 0 1-10.874-2.661 20.178 20.178 0 0 1-7.928-7.7 22.2 22.2 0 0 1-2.973-11.498Zm12.349 0a9.06 9.06 0 0 0 2.74 6.832 9.28 9.28 0 0 0 6.686 2.638 9.432 9.432 0 0 0 6.774-2.616 9.043 9.043 0 0 0 2.74-6.853 8.919 8.919 0 0 0-2.762-6.745 9.41 9.41 0 0 0-6.752-2.638 9.28 9.28 0 0 0-6.686 2.638 8.955 8.955 0 0 0-2.741 6.744ZM208.169 100V57.988h12.437v6.228a12.786 12.786 0 0 1 5.047-5.184 13.914 13.914 0 0 1 7.118-1.967q7.234 0 11.289 4.526t4.056 13.315V100h-12.437V77.748a8.662 8.662 0 0 0-2.005-6.152 6.939 6.939 0 0 0-5.311-2.138q-7.757 0-7.757 8.464V100Zm48.6-21.159a22.037 22.037 0 0 1 2.977-11.441 20.158 20.158 0 0 1 7.928-7.683 22.65 22.65 0 0 1 10.874-2.656 22.585 22.585 0 0 1 10.882 2.673 20.444 20.444 0 0 1 7.972 7.731 21.819 21.819 0 0 1 3.009 11.372 22.01 22.01 0 0 1-3.011 11.412 20.425 20.425 0 0 1-7.972 7.775 22.537 22.537 0 0 1-10.881 2.676 22.613 22.613 0 0 1-10.874-2.661 20.178 20.178 0 0 1-7.928-7.7 22.2 22.2 0 0 1-2.973-11.498Zm12.349 0a9.06 9.06 0 0 0 2.74 6.832 9.28 9.28 0 0 0 6.686 2.638 9.432 9.432 0 0 0 6.774-2.616 9.043 9.043 0 0 0 2.74-6.853A8.919 8.919 0 0 0 285.3 72.1a9.41 9.41 0 0 0-6.752-2.638 9.28 9.28 0 0 0-6.686 2.638 8.955 8.955 0 0 0-2.741 6.741Zm36.123-10.965v-9.888h7.646V41.86h12.437v16.128h8.833v9.888h-8.833V100h-12.433V67.876Zm36.079 15.205V57.988h12.44v22.6a10.765 10.765 0 0 0 .727 4.144 5.943 5.943 0 0 0 1.917 2.615 8.87 8.87 0 0 0 2.38 1.263 7.58 7.58 0 0 0 2.425.4 7.572 7.572 0 0 0 5.443-2.083q2.182-2.083 2.182-6.56V57.988h12.436V100h-12.437v-5.622a11.922 11.922 0 0 1-4.694 4.757 12.472 12.472 0 0 1-6.239 1.744q-7.393 0-11.986-4.57t-4.591-13.228ZM392.871 100V35.093h12.437v28.038a10.285 10.285 0 0 1 4.878-4.449 17.009 17.009 0 0 1 7.427-1.616 19.4 19.4 0 0 1 7.734 1.585 20.487 20.487 0 0 1 6.482 4.381 20.43 20.43 0 0 1 4.46 7 24.533 24.533 0 0 1 1.67 9.137 23.607 23.607 0 0 1-1.67 8.947 20.225 20.225 0 0 1-4.46 6.884 20.37 20.37 0 0 1-6.482 4.32 19.7 19.7 0 0 1-7.735 1.559 16.821 16.821 0 0 1-7.383-1.626 10.548 10.548 0 0 1-4.922-4.482V100Zm12.7-21.094a9.814 9.814 0 0 0 2.856 7.263 9.37 9.37 0 0 0 6.855 2.844 9.4 9.4 0 0 0 6.9-2.8A9.86 9.86 0 0 0 425 78.906a9.674 9.674 0 0 0-2.812-7.2 9.44 9.44 0 0 0-6.9-2.779 9.54 9.54 0 0 0-6.877 2.735 9.6 9.6 0 0 0-2.84 7.244Zm41.9 11.511a22.311 22.311 0 0 1-2.966-11.488 22.189 22.189 0 0 1 2.966-11.466 20.165 20.165 0 0 1 7.954-7.721 22.906 22.906 0 0 1 11.008-2.677 21.858 21.858 0 0 1 8.394 1.626 21.071 21.071 0 0 1 6.855 4.482 20.6 20.6 0 0 1 4.592 7.009 23.709 23.709 0 0 1 1.692 9.031q0 1.67-.176 3.867h-30.803a6.913 6.913 0 0 0 3.538 5.273 13.1 13.1 0 0 0 6.833 1.847 13.533 13.533 0 0 0 5.208-1.023 9.377 9.377 0 0 0 3.977-2.981l9.1 6.227a17.129 17.129 0 0 1-8.13 6.407 29.864 29.864 0 0 1-11.077 2.049 22.763 22.763 0 0 1-11.008-2.7 20.27 20.27 0 0 1-7.955-7.762Zm9.69-15.158h18.193a6.947 6.947 0 0 0-3.1-5.186 10.2 10.2 0 0 0-5.735-1.757 10.925 10.925 0 0 0-5.845 1.715 7.731 7.731 0 0 0-3.511 5.228Z" fill="#333"/>
    </g>
</svg>
